<svg width="59" height="60" viewBox="0 0 59 60" fill="none" xmlns="http://www.w3.org/2000/svg">
<path d="M0.25 30C0.25 34.674 1.348 39.099 3.304 43.026C3.616 43.656 3.646 44.595 3.289 46.056C3.09995 46.794 2.87975 47.5236 2.629 48.243L2.539 48.501C2.317 49.161 2.077 49.881 1.897 50.55C0.751 54.831 4.669 58.749 8.947 57.603C9.619 57.423 10.336 57.183 10.999 56.961L11.257 56.871C11.9764 56.6202 12.706 56.4 13.444 56.211C14.905 55.851 15.844 55.881 16.474 56.196C20.5199 58.2119 24.9797 59.2575 29.5 59.25C45.655 59.25 58.75 46.155 58.75 30C58.75 13.845 45.655 0.75 29.5 0.75C13.345 0.75 0.25 13.845 0.25 30ZM37.252 22.176C37.7357 22.5253 38.0608 23.0525 38.1559 23.6415C38.251 24.2305 38.1082 24.8332 37.759 25.317L29.359 36.945C29.0816 37.3279 28.7215 37.6434 28.3056 37.8681C27.8896 38.0928 27.4283 38.2211 26.9561 38.2433C26.4838 38.2654 26.0126 38.181 25.5773 37.9963C25.1421 37.8115 24.7541 37.5312 24.442 37.176L20.308 32.448C19.9425 31.9957 19.7663 31.4195 19.8163 30.8402C19.8664 30.2609 20.1387 29.7234 20.5764 29.3405C21.014 28.9576 21.5828 28.7589 22.1637 28.7863C22.7445 28.8136 23.2923 29.0647 23.692 29.487L26.707 32.931L34.111 22.683C34.4603 22.1993 34.9875 21.8741 35.5765 21.7791C36.1655 21.684 36.7682 21.8268 37.252 22.176Z" fill="#0168E5"/>
</svg>
